<svg xmlns="http://www.w3.org/2000/svg" width="2200" height="1322" viewBox="0 0 2200 1322" font-family="Inter, Segoe UI, sans-serif">
<defs>
  <marker id="arrow" viewBox="0 0 10 10" refX="9" refY="5" markerWidth="7" markerHeight="7" orient="auto-start-reverse">
    <path d="M0,0 L10,5 L0,10 z" fill="#94a3b8"/>
  </marker>
</defs>
<rect x="0" y="0" width="2200" height="1322" fill="#f8fafc"/><rect x="12" y="24" width="2176" height="268" rx="16" fill="#e9f0fb" stroke="#e2e8f0" stroke-width="1.5"/><rect x="12" y="314" width="2176" height="268" rx="16" fill="#eafaf1" stroke="#e2e8f0" stroke-width="1.5"/><rect x="12" y="604" width="2176" height="192" rx="16" fill="#fdf0e7" stroke="#e2e8f0" stroke-width="1.5"/><rect x="12" y="818" width="2176" height="268" rx="16" fill="#f0ebfa" stroke="#e2e8f0" stroke-width="1.5"/><rect x="12" y="1108" width="2176" height="192" rx="16" fill="#fbe9ee" stroke="#e2e8f0" stroke-width="1.5"/><path d="M540,164 C540,279 260,279 260,394" fill="none" stroke="#94a3b8" stroke-width="1.6" marker-end="url(#arrow)"/><path d="M820,164 C820,279 260,279 260,394" fill="none" stroke="#94a3b8" stroke-width="1.6" marker-end="url(#arrow)"/><path d="M1520,240 C1520,714 400,714 400,1188" fill="none" stroke="#94a3b8" stroke-width="1.6" marker-end="url(#arrow)"/><path d="M1100,164 C1100,279 1100,279 1100,394" fill="none" stroke="#94a3b8" stroke-width="1.6" marker-end="url(#arrow)"/><path d="M1100,164 C1100,424 1380,424 1380,684" fill="none" stroke="#94a3b8" stroke-width="1.6" marker-end="url(#arrow)"/><path d="M1380,164 C1380,279 540,279 540,394" fill="none" stroke="#94a3b8" stroke-width="1.6" marker-end="url(#arrow)"/><path d="M1660,164 C1660,279 820,279 820,394" fill="none" stroke="#94a3b8" stroke-width="1.6" marker-end="url(#arrow)"/><path d="M1660,164 C1660,279 540,279 540,394" fill="none" stroke="#94a3b8" stroke-width="1.6" marker-end="url(#arrow)"/><path d="M1940,164 C1940,279 540,279 540,394" fill="none" stroke="#94a3b8" stroke-width="1.6" marker-end="url(#arrow)"/><path d="M400,240 C400,355 820,355 820,470" fill="none" stroke="#94a3b8" stroke-width="1.6" marker-end="url(#arrow)"/><path d="M680,240 C680,317 1660,317 1660,394" fill="none" stroke="#94a3b8" stroke-width="1.6" marker-end="url(#arrow)"/><path d="M960,240 C960,317 1380,317 1380,394" fill="none" stroke="#94a3b8" stroke-width="1.6" marker-end="url(#arrow)"/><path d="M1240,240 C1240,355 1100,355 1100,470" fill="none" stroke="#94a3b8" stroke-width="1.6" marker-end="url(#arrow)"/><path d="M260,164 C260,676 1240,676 1240,1188" fill="none" stroke="#94a3b8" stroke-width="1.6" marker-end="url(#arrow)"/><path d="M260,164 C260,676 1520,676 1520,1188" fill="none" stroke="#94a3b8" stroke-width="1.6" marker-end="url(#arrow)"/><path d="M260,454 C260,569 260,569 260,684" fill="none" stroke="#94a3b8" stroke-width="1.6" marker-end="url(#arrow)"/><path d="M540,454 C540,569 540,569 540,684" fill="none" stroke="#94a3b8" stroke-width="1.6" marker-end="url(#arrow)"/><path d="M540,454 C540,569 820,569 820,684" fill="none" stroke="#94a3b8" stroke-width="1.6" marker-end="url(#arrow)"/><path d="M820,454 C820,569 820,569 820,684" fill="none" stroke="#94a3b8" stroke-width="1.6" marker-end="url(#arrow)"/><path d="M1660,454 C1660,569 1100,569 1100,684" fill="none" stroke="#94a3b8" stroke-width="1.6" marker-end="url(#arrow)"/><path d="M1660,454 C1660,569 820,569 820,684" fill="none" stroke="#94a3b8" stroke-width="1.6" marker-end="url(#arrow)"/><path d="M1100,454 C1100,569 1100,569 1100,684" fill="none" stroke="#94a3b8" stroke-width="1.6" marker-end="url(#arrow)"/><path d="M1380,454 C1380,569 1100,569 1100,684" fill="none" stroke="#94a3b8" stroke-width="1.6" marker-end="url(#arrow)"/><path d="M1940,454 C1940,569 1380,569 1380,684" fill="none" stroke="#94a3b8" stroke-width="1.6" marker-end="url(#arrow)"/><path d="M820,530 C820,607 540,607 540,684" fill="none" stroke="#94a3b8" stroke-width="1.6" marker-end="url(#arrow)"/><path d="M1100,530 C1100,607 1100,607 1100,684" fill="none" stroke="#94a3b8" stroke-width="1.6" marker-end="url(#arrow)"/><path d="M260,744 C260,821 260,821 260,898" fill="none" stroke="#94a3b8" stroke-width="1.6" marker-end="url(#arrow)"/><path d="M540,744 C540,821 1100,821 1100,898" fill="none" stroke="#94a3b8" stroke-width="1.6" marker-end="url(#arrow)"/><path d="M820,744 C820,821 540,821 540,898" fill="none" stroke="#94a3b8" stroke-width="1.6" marker-end="url(#arrow)"/><path d="M820,744 C820,821 820,821 820,898" fill="none" stroke="#94a3b8" stroke-width="1.6" marker-end="url(#arrow)"/><path d="M820,744 C820,821 1100,821 1100,898" fill="none" stroke="#94a3b8" stroke-width="1.6" marker-end="url(#arrow)"/><path d="M1100,744 C1100,821 540,821 540,898" fill="none" stroke="#94a3b8" stroke-width="1.6" marker-end="url(#arrow)"/><path d="M1100,744 C1100,821 820,821 820,898" fill="none" stroke="#94a3b8" stroke-width="1.6" marker-end="url(#arrow)"/><path d="M1380,744 C1380,821 1380,821 1380,898" fill="none" stroke="#94a3b8" stroke-width="1.6" marker-end="url(#arrow)"/><path d="M260,958 C260,928 1660,928 1660,898" fill="none" stroke="#94a3b8" stroke-width="1.6" marker-end="url(#arrow)"/><path d="M540,958 C540,928 1660,928 1660,898" fill="none" stroke="#94a3b8" stroke-width="1.6" marker-end="url(#arrow)"/><path d="M820,958 C820,928 1660,928 1660,898" fill="none" stroke="#94a3b8" stroke-width="1.6" marker-end="url(#arrow)"/><path d="M1100,958 C1100,928 1660,928 1660,898" fill="none" stroke="#94a3b8" stroke-width="1.6" marker-end="url(#arrow)"/><path d="M1380,958 C1380,928 1660,928 1660,898" fill="none" stroke="#94a3b8" stroke-width="1.6" marker-end="url(#arrow)"/><path d="M1660,958 C1660,928 1940,928 1940,898" fill="none" stroke="#94a3b8" stroke-width="1.6" marker-end="url(#arrow)"/><path d="M1940,958 C1940,966 1100,966 1100,974" fill="none" stroke="#94a3b8" stroke-width="1.6" marker-end="url(#arrow)"/><path d="M680,1248 C680,1218 960,1218 960,1188" fill="none" stroke="#94a3b8" stroke-width="1.6" marker-end="url(#arrow)"/><path d="M400,1248 C400,1218 680,1218 680,1188" fill="none" stroke="#94a3b8" stroke-width="1.6" marker-end="url(#arrow)"/><path d="M960,1188 C960,676 260,676 260,164" fill="none" stroke="#cbd5e1" stroke-width="1.4" stroke-dasharray="4 4" marker-end="url(#arrow)"/><text x="34" y="54" font-size="19" font-weight="800" fill="#1d4ed8">PRESENTACIÓN — app/ (Vistas y rutas)</text><text x="34" y="85" font-size="13" fill="#475569" font-style="italic">Renderizado en servidor; las páginas de la app autenticadas viven en el grupo (shell).</text><text x="34" y="344" font-size="19" font-weight="800" fill="#0f766e">APLICACIÓN — features/ (UI · hooks · stores · server actions)</text><text x="34" y="375" font-size="13" fill="#475569" font-style="italic">Capa cliente + server actions. Stores Zustand; algunos persistidos en localStorage.</text><text x="34" y="634" font-size="19" font-weight="800" fill="#c2410c">DOMINIO — services/ + lib/ (casos de uso · utilidades puras)</text><text x="34" y="665" font-size="13" fill="#475569" font-style="italic">Orquestan repositorios y validan reglas de negocio; lib = utilidades puras y constantes.</text><text x="34" y="848" font-size="19" font-weight="800" fill="#6d28d9">DATOS — repositories/ + Prisma + PostgreSQL</text><text x="34" y="879" font-size="13" fill="#475569" font-style="italic">Repositorios finos sobre Prisma; PostgreSQL en Neon (prod) o Docker (dev).</text><text x="34" y="1138" font-size="19" font-weight="800" fill="#be185d">INFRAESTRUCTURA — Auth · middleware · PWA · providers</text><text x="34" y="1169" font-size="13" fill="#475569" font-style="italic">Auth edge-safe separada del runtime Node; PWA con service worker y notificaciones.</text><rect x="131" y="104" width="258" height="60" rx="10" fill="#ffffff" stroke="#1d4ed8" stroke-width="1.8"/><text x="260" y="128" font-size="14" font-weight="700" fill="#111827" text-anchor="middle">Layout raíz</text><text x="260" y="148" font-size="10" font-weight="500" fill="#64748b" text-anchor="middle">app/layout.tsx · fuentes · providers · PWA</text><rect x="411" y="104" width="258" height="60" rx="10" fill="#ffffff" stroke="#1d4ed8" stroke-width="1.8"/><text x="540" y="128" font-size="14" font-weight="700" fill="#111827" text-anchor="middle">Landing</text><text x="540" y="148" font-size="10" font-weight="500" fill="#64748b" text-anchor="middle">app/(marketing)/page.tsx · /</text><rect x="691" y="104" width="258" height="60" rx="10" fill="#ffffff" stroke="#1d4ed8" stroke-width="1.8"/><text x="820" y="128" font-size="14" font-weight="700" fill="#111827" text-anchor="middle">Login · Register</text><text x="820" y="148" font-size="10" font-weight="500" fill="#64748b" text-anchor="middle">app/(auth)/ · componentes auth</text><rect x="971" y="104" width="258" height="60" rx="10" fill="#ffffff" stroke="#1d4ed8" stroke-width="1.8"/><text x="1100" y="128" font-size="14" font-weight="700" fill="#111827" text-anchor="middle">Inicio</text><text x="1100" y="148" font-size="10" font-weight="500" fill="#64748b" text-anchor="middle">/app/home · CategoryHomeGrid</text><rect x="1251" y="104" width="258" height="60" rx="10" fill="#ffffff" stroke="#1d4ed8" stroke-width="1.8"/><text x="1380" y="128" font-size="14" font-weight="700" fill="#111827" text-anchor="middle">Nueva sesión</text><text x="1380" y="148" font-size="10" font-weight="500" fill="#64748b" text-anchor="middle">/app/session/new · SessionWizard</text><rect x="1531" y="104" width="258" height="60" rx="10" fill="#ffffff" stroke="#1d4ed8" stroke-width="1.8"/><text x="1660" y="128" font-size="14" font-weight="700" fill="#111827" text-anchor="middle">No sé qué hacer</text><text x="1660" y="148" font-size="10" font-weight="500" fill="#64748b" text-anchor="middle">/app/session/recommend</text><rect x="1811" y="104" width="258" height="60" rx="10" fill="#ffffff" stroke="#1d4ed8" stroke-width="1.8"/><text x="1940" y="128" font-size="14" font-weight="700" fill="#111827" text-anchor="middle">Sesión activa</text><text x="1940" y="148" font-size="10" font-weight="500" fill="#64748b" text-anchor="middle">/app/session · fullscreen</text><rect x="271" y="180" width="258" height="60" rx="10" fill="#ffffff" stroke="#1d4ed8" stroke-width="1.8"/><text x="400" y="204" font-size="14" font-weight="700" fill="#111827" text-anchor="middle">Historial</text><text x="400" y="224" font-size="10" font-weight="500" fill="#64748b" text-anchor="middle">/app/history</text><rect x="551" y="180" width="258" height="60" rx="10" fill="#ffffff" stroke="#1d4ed8" stroke-width="1.8"/><text x="680" y="204" font-size="14" font-weight="700" fill="#111827" text-anchor="middle">Personalizar</text><text x="680" y="224" font-size="10" font-weight="500" fill="#64748b" text-anchor="middle">/app/routine · RoutineTabs</text><rect x="831" y="180" width="258" height="60" rx="10" fill="#ffffff" stroke="#1d4ed8" stroke-width="1.8"/><text x="960" y="204" font-size="14" font-weight="700" fill="#111827" text-anchor="middle">Actividades</text><text x="960" y="224" font-size="10" font-weight="500" fill="#64748b" text-anchor="middle">/app/subcategories</text><rect x="1111" y="180" width="258" height="60" rx="10" fill="#ffffff" stroke="#1d4ed8" stroke-width="1.8"/><text x="1240" y="204" font-size="14" font-weight="700" fill="#111827" text-anchor="middle">Papelera</text><text x="1240" y="224" font-size="10" font-weight="500" fill="#64748b" text-anchor="middle">/app/trash</text><rect x="1391" y="180" width="258" height="60" rx="10" fill="#ffffff" stroke="#1d4ed8" stroke-width="1.8"/><text x="1520" y="204" font-size="14" font-weight="700" fill="#111827" text-anchor="middle">API Auth</text><text x="1520" y="224" font-size="10" font-weight="500" fill="#64748b" text-anchor="middle">/api/auth/[...nextauth]</text><rect x="1671" y="180" width="258" height="60" rx="10" fill="#ffffff" stroke="#1d4ed8" stroke-width="1.8"/><text x="1800" y="204" font-size="14" font-weight="700" fill="#111827" text-anchor="middle">PWA</text><text x="1800" y="224" font-size="10" font-weight="500" fill="#64748b" text-anchor="middle">manifest · iconos · apple-icon</text><rect x="131" y="394" width="258" height="60" rx="10" fill="#ffffff" stroke="#0f766e" stroke-width="1.8"/><text x="260" y="418" font-size="14" font-weight="700" fill="#111827" text-anchor="middle">features/auth</text><text x="260" y="438" font-size="10" font-weight="500" fill="#64748b" text-anchor="middle">Login/RegisterForm · acciones auth</text><rect x="411" y="394" width="258" height="60" rx="10" fill="#ffffff" stroke="#0f766e" stroke-width="1.8"/><text x="540" y="418" font-size="14" font-weight="700" fill="#111827" text-anchor="middle">features/session</text><text x="540" y="438" font-size="10" font-weight="500" fill="#64748b" text-anchor="middle">SessionExperience · useTimer · store</text><rect x="691" y="394" width="258" height="60" rx="10" fill="#ffffff" stroke="#0f766e" stroke-width="1.8"/><text x="820" y="418" font-size="14" font-weight="700" fill="#111827" text-anchor="middle">features/recommendation</text><text x="820" y="438" font-size="10" font-weight="500" fill="#64748b" text-anchor="middle">EnergySurvey · MoodModal · store</text><rect x="971" y="394" width="258" height="60" rx="10" fill="#ffffff" stroke="#0f766e" stroke-width="1.8"/><text x="1100" y="418" font-size="14" font-weight="700" fill="#111827" text-anchor="middle">features/home</text><text x="1100" y="438" font-size="10" font-weight="500" fill="#64748b" text-anchor="middle">CategoryHomeGrid · home-quick store</text><rect x="1251" y="394" width="258" height="60" rx="10" fill="#ffffff" stroke="#0f766e" stroke-width="1.8"/><text x="1380" y="418" font-size="14" font-weight="700" fill="#111827" text-anchor="middle">features/categories</text><text x="1380" y="438" font-size="10" font-weight="500" fill="#64748b" text-anchor="middle">CategoryTabs · SubcategoryList · actions</text><rect x="1531" y="394" width="258" height="60" rx="10" fill="#ffffff" stroke="#0f766e" stroke-width="1.8"/><text x="1660" y="418" font-size="14" font-weight="700" fill="#111827" text-anchor="middle">features/routine</text><text x="1660" y="438" font-size="10" font-weight="500" fill="#64748b" text-anchor="middle">RoutineTabs · RecommendationsTab</text><rect x="1811" y="394" width="258" height="60" rx="10" fill="#ffffff" stroke="#0f766e" stroke-width="1.8"/><text x="1940" y="418" font-size="14" font-weight="700" fill="#111827" text-anchor="middle">features/planning</text><text x="1940" y="438" font-size="10" font-weight="500" fill="#64748b" text-anchor="middle">PlanningManager · PlanningModal · actions</text><rect x="691" y="470" width="258" height="60" rx="10" fill="#ffffff" stroke="#0f766e" stroke-width="1.8"/><text x="820" y="494" font-size="14" font-weight="700" fill="#111827" text-anchor="middle">features/history</text><text x="820" y="514" font-size="10" font-weight="500" fill="#64748b" text-anchor="middle">HistoryView · group-by-day</text><rect x="971" y="470" width="258" height="60" rx="10" fill="#ffffff" stroke="#0f766e" stroke-width="1.8"/><text x="1100" y="494" font-size="14" font-weight="700" fill="#111827" text-anchor="middle">features/trash</text><text x="1100" y="514" font-size="10" font-weight="500" fill="#64748b" text-anchor="middle">TrashView · undo store</text><rect x="1251" y="470" width="258" height="60" rx="10" fill="#ffffff" stroke="#0f766e" stroke-width="1.8"/><text x="1380" y="494" font-size="14" font-weight="700" fill="#111827" text-anchor="middle">features/onboarding</text><text x="1380" y="514" font-size="10" font-weight="500" fill="#64748b" text-anchor="middle">onboarding.store · welcome · mood</text><rect x="131" y="684" width="258" height="60" rx="10" fill="#ffffff" stroke="#c2410c" stroke-width="1.8"/><text x="260" y="708" font-size="14" font-weight="700" fill="#111827" text-anchor="middle">services/auth</text><text x="260" y="728" font-size="10" font-weight="500" fill="#64748b" text-anchor="middle">register-user · get-user-by-email</text><rect x="411" y="684" width="258" height="60" rx="10" fill="#ffffff" stroke="#c2410c" stroke-width="1.8"/><text x="540" y="708" font-size="14" font-weight="700" fill="#111827" text-anchor="middle">services/session</text><text x="540" y="728" font-size="10" font-weight="500" fill="#64748b" text-anchor="middle">start · pause · resume · complete · extend</text><rect x="691" y="684" width="258" height="60" rx="10" fill="#ffffff" stroke="#c2410c" stroke-width="1.8"/><text x="820" y="708" font-size="14" font-weight="700" fill="#111827" text-anchor="middle">services/recommendation</text><text x="820" y="728" font-size="10" font-weight="500" fill="#64748b" text-anchor="middle">rule-based · energy-level · format-reason</text><rect x="971" y="684" width="258" height="60" rx="10" fill="#ffffff" stroke="#c2410c" stroke-width="1.8"/><text x="1100" y="708" font-size="14" font-weight="700" fill="#111827" text-anchor="middle">services/categories</text><text x="1100" y="728" font-size="10" font-weight="500" fill="#64748b" text-anchor="middle">list · create · update · delete · seed · trash</text><rect x="1251" y="684" width="258" height="60" rx="10" fill="#ffffff" stroke="#c2410c" stroke-width="1.8"/><text x="1380" y="708" font-size="14" font-weight="700" fill="#111827" text-anchor="middle">services/planning</text><text x="1380" y="728" font-size="10" font-weight="500" fill="#64748b" text-anchor="middle">daily-plan.service</text><rect x="1531" y="684" width="258" height="60" rx="10" fill="#ffffff" stroke="#c2410c" stroke-width="1.8"/><text x="1660" y="708" font-size="14" font-weight="700" fill="#111827" text-anchor="middle">lib/ utilidades</text><text x="1660" y="728" font-size="10" font-weight="500" fill="#64748b" text-anchor="middle">prisma · password · session-time · analytics</text><rect x="1811" y="684" width="258" height="60" rx="10" fill="#ffffff" stroke="#c2410c" stroke-width="1.8"/><text x="1940" y="708" font-size="14" font-weight="700" fill="#111827" text-anchor="middle">lib/ constantes</text><text x="1940" y="728" font-size="10" font-weight="500" fill="#64748b" text-anchor="middle">categories · default-subcategories · icon-options</text><rect x="131" y="898" width="258" height="60" rx="10" fill="#ffffff" stroke="#6d28d9" stroke-width="1.8"/><text x="260" y="922" font-size="14" font-weight="700" fill="#111827" text-anchor="middle">user.repository</text><text x="260" y="942" font-size="10" font-weight="500" fill="#64748b" text-anchor="middle">findByEmail · findById · create</text><rect x="411" y="898" width="258" height="60" rx="10" fill="#ffffff" stroke="#6d28d9" stroke-width="1.8"/><text x="540" y="922" font-size="14" font-weight="700" fill="#111827" text-anchor="middle">category.repository</text><text x="540" y="942" font-size="10" font-weight="500" fill="#64748b" text-anchor="middle">list · count · soft-delete · restore</text><rect x="691" y="898" width="258" height="60" rx="10" fill="#ffffff" stroke="#6d28d9" stroke-width="1.8"/><text x="820" y="922" font-size="14" font-weight="700" fill="#111827" text-anchor="middle">subcategory.repository</text><text x="820" y="942" font-size="10" font-weight="500" fill="#64748b" text-anchor="middle">list · create · reorder · restore</text><rect x="971" y="898" width="258" height="60" rx="10" fill="#ffffff" stroke="#6d28d9" stroke-width="1.8"/><text x="1100" y="922" font-size="14" font-weight="700" fill="#111827" text-anchor="middle">focus-session.repository</text><text x="1100" y="942" font-size="10" font-weight="500" fill="#64748b" text-anchor="middle">active · history · stats · create</text><rect x="1251" y="898" width="258" height="60" rx="10" fill="#ffffff" stroke="#6d28d9" stroke-width="1.8"/><text x="1380" y="922" font-size="14" font-weight="700" fill="#111827" text-anchor="middle">planning.repository</text><text x="1380" y="942" font-size="10" font-weight="500" fill="#64748b" text-anchor="middle">findByDate · create · updateItems</text><rect x="1531" y="898" width="258" height="60" rx="10" fill="#ffffff" stroke="#6d28d9" stroke-width="1.8"/><text x="1660" y="922" font-size="14" font-weight="700" fill="#111827" text-anchor="middle">Prisma Client</text><text x="1660" y="942" font-size="10" font-weight="500" fill="#64748b" text-anchor="middle">lib/generated/prisma (adapter pg)</text><rect x="1811" y="898" width="258" height="60" rx="10" fill="#ffffff" stroke="#6d28d9" stroke-width="1.8"/><text x="1940" y="922" font-size="14" font-weight="700" fill="#111827" text-anchor="middle">Schema</text><text x="1940" y="942" font-size="10" font-weight="500" fill="#64748b" text-anchor="middle">User · Category · FocusSession · DailyPlan</text><rect x="971" y="974" width="258" height="60" rx="10" fill="#ffffff" stroke="#6d28d9" stroke-width="1.8"/><text x="1100" y="998" font-size="14" font-weight="700" fill="#111827" text-anchor="middle">PostgreSQL</text><text x="1100" y="1018" font-size="10" font-weight="500" fill="#64748b" text-anchor="middle">Neon (prod) · Docker (dev) · migrate</text><rect x="271" y="1188" width="258" height="60" rx="10" fill="#ffffff" stroke="#be185d" stroke-width="1.8"/><text x="400" y="1212" font-size="14" font-weight="700" fill="#111827" text-anchor="middle">auth.ts (NextAuth)</text><text x="400" y="1232" font-size="10" font-weight="500" fill="#64748b" text-anchor="middle">Credentials + JWT · Node · bcrypt+Prisma</text><rect x="551" y="1188" width="258" height="60" rx="10" fill="#ffffff" stroke="#be185d" stroke-width="1.8"/><text x="680" y="1212" font-size="14" font-weight="700" fill="#111827" text-anchor="middle">auth.config.ts</text><text x="680" y="1232" font-size="10" font-weight="500" fill="#64748b" text-anchor="middle">Edge-safe · callbacks jwt/session</text><rect x="831" y="1188" width="258" height="60" rx="10" fill="#ffffff" stroke="#be185d" stroke-width="1.8"/><text x="960" y="1212" font-size="14" font-weight="700" fill="#111827" text-anchor="middle">proxy.ts (middleware)</text><text x="960" y="1232" font-size="10" font-weight="500" fill="#64748b" text-anchor="middle">gate /app/* y /api/* → /login</text><rect x="1111" y="1188" width="258" height="60" rx="10" fill="#ffffff" stroke="#be185d" stroke-width="1.8"/><text x="1240" y="1212" font-size="14" font-weight="700" fill="#111827" text-anchor="middle">ThemeProvider</text><text x="1240" y="1232" font-size="10" font-weight="500" fill="#64748b" text-anchor="middle">next-themes · 6 temas · default dark</text><rect x="1391" y="1188" width="258" height="60" rx="10" fill="#ffffff" stroke="#be185d" stroke-width="1.8"/><text x="1520" y="1212" font-size="14" font-weight="700" fill="#111827" text-anchor="middle">PWA / SW</text><text x="1520" y="1232" font-size="10" font-weight="500" fill="#64748b" text-anchor="middle">sw.js · offline.html · use-pwa-install</text><rect x="1671" y="1188" width="258" height="60" rx="10" fill="#ffffff" stroke="#be185d" stroke-width="1.8"/><text x="1800" y="1212" font-size="14" font-weight="700" fill="#111827" text-anchor="middle">Vercel · Neon</text><text x="1800" y="1232" font-size="10" font-weight="500" fill="#64748b" text-anchor="middle">generate + migrate deploy + next build</text></svg>